<svg width="180" height="30" viewBox="0 0 180 30" fill="none" xmlns="http://www.w3.org/2000/svg">
<path d="M16.2542 0L19.8021 10.3647H31.2834L21.9948 16.7705L25.5427 27.1353L16.2542 20.7295L6.96557 27.1353L10.5135 16.7705L1.22492 10.3647H12.7062L16.2542 0Z" fill="#F8C23A"/>
<path d="M53.1271 0L56.675 10.3647H68.1563L58.8677 16.7705L62.4157 27.1353L53.1271 20.7295L43.8385 27.1353L47.3864 16.7705L38.0978 10.3647H49.5792L53.1271 0Z" fill="#F8C23A"/>
<path d="M90 0L93.5479 10.3647H105.029L95.7407 16.7705L99.2886 27.1353L90 20.7295L80.7114 27.1353L84.2593 16.7705L74.9708 10.3647H86.4521L90 0Z" fill="#F8C23A"/>
<path d="M126.873 0L130.421 10.3647H141.902L132.614 16.7705L136.162 27.1353L126.873 20.7295L117.584 27.1353L121.132 16.7705L111.844 10.3647H123.325L126.873 0Z" fill="#F8C23A"/>
<path d="M163.746 0L167.294 10.3647H178.775L169.486 16.7705L173.034 27.1353L163.746 20.7295L154.457 27.1353L158.005 16.7705L148.717 10.3647H160.198L163.746 0Z" fill="#F8C23A"/>
</svg>
