<svg width="180" height="30" viewBox="0 0 180 30" fill="none" xmlns="http://www.w3.org/2000/svg">
<path d="M16.2308 0L19.7787 10.3647H31.26L21.9714 16.7705L25.5194 27.1353L16.2308 20.7295L6.9422 27.1353L10.4901 16.7705L1.20154 10.3647H12.6829L16.2308 0Z" fill="#F8C23A"/>
<path d="M53.1037 0L56.6516 10.3647H68.1329L58.8443 16.7705L62.3923 27.1353L53.1037 20.7295L43.8151 27.1353L47.363 16.7705L38.0744 10.3647H49.5557L53.1037 0Z" fill="#F8C23A"/>
<path d="M89.9766 0L93.5245 10.3647H105.006L95.7173 16.7705L99.2652 27.1353L89.9766 20.7295L80.688 27.1353L84.2359 16.7705L74.9474 10.3647H86.4287L89.9766 0Z" fill="#F8C23A"/>
<path d="M126.85 0L130.397 10.3647H141.879L132.59 16.7705L136.138 27.1353L126.85 20.7295L117.561 27.1353L121.109 16.7705L111.82 10.3647H123.302L126.85 0Z" fill="#F8C23A"/>
<path d="M163.722 0L167.27 10.3647H178.752L169.463 16.7705L173.011 27.1353L163.722 20.7295L154.434 27.1353L157.982 16.7705L148.693 10.3647H160.174L163.722 0Z" fill="#C4C4C4"/>
</svg>
